<?xml version="1.0" encoding="utf-8"?>
<!-- Generator: Adobe Illustrator 27.3.1, SVG Export Plug-In . SVG Version: 6.00 Build 0)  -->
<svg version="1.1" id="Ebene_1" xmlns="http://www.w3.org/2000/svg" xmlns:xlink="http://www.w3.org/1999/xlink" x="0px" y="0px"
	 viewBox="0 0 68.7 62.3" style="enable-background:new 0 0 68.7 62.3;" xml:space="preserve">
<style type="text/css">
	.st0{fill:#50D691;}
</style>
<g id="Ebene_2_00000144310636563430516720000017357577294470110634_">
	<g id="Ebene_1-2">
		<path class="st0" d="M54.5,29.8c6.9-1.3,11-7,11-13.8C65.5,5.1,57.4,0,46.4,0H0v62.3h48.5c12.4,0,20.2-4.9,20.2-16.6
			C68.7,37.1,63.2,30.7,54.5,29.8z M6,5.3h39c8.8,0,14.2,3.2,14.2,11c0,8.5-7.3,11.3-14.5,11.3H6V5.3z M48.5,57H6V32.9h37.5
			c10.6,0,18.8,2.4,18.8,12.8C62.3,53.4,56.6,57,48.5,57z"/>
	</g>
</g>
</svg>
